<?xml version="1.0" standalone="no"?>
<!DOCTYPE svg PUBLIC "-//W3C//DTD SVG 20010904//EN"
 "http://www.w3.org/TR/2001/REC-SVG-20010904/DTD/svg10.dtd">
<svg version="1.0" xmlns="http://www.w3.org/2000/svg"
 width="1024.000000pt" height="1024.000000pt" viewBox="0 0 1024.000000 1024.000000"
 preserveAspectRatio="xMidYMid meet">

<g transform="translate(0.000000,1024.000000) scale(0.100000,-0.100000)"
fill="#000000" stroke="none">
<path d="M4845 8764 c-16 -2 -109 -14 -205 -25 -160 -19 -273 -39 -465 -84
-98 -23 -378 -118 -520 -177 -260 -108 -516 -254 -795 -454 -204 -146 -618
-553 -766 -754 -171 -231 -287 -428 -398 -675 -183 -407 -253 -686 -286 -1135
-32 -440 17 -928 136 -1355 36 -126 132 -380 160 -420 8 -11 14 -26 14 -35 0
-20 123 -263 190 -375 195 -328 319 -488 577 -744 63 -62 117 -111 120 -107 3
3 11 -4 17 -17 6 -12 59 -61 116 -110 336 -281 740 -502 1198 -656 122 -41
350 -101 384 -101 21 0 41 44 52 109 10 66 21 198 21 266 l0 60 -75 18 c-198
47 -333 93 -500 170 -41 19 -104 47 -140 63 -36 16 -93 45 -127 64 -34 19 -96
54 -138 78 -141 80 -340 220 -462 326 -120 105 -143 120 -143 91 0 -8 -10 -20
-22 -26 -13 -6 -20 -8 -16 -4 4 5 3 14 -4 22 -8 10 -8 17 0 25 21 21 13 34
-67 119 -188 202 -326 393 -487 679 -139 245 -209 453 -294 874 -29 143 -54
359 -65 566 -7 129 9 436 31 580 32 210 35 233 30 246 -4 11 -29 14 -104 14
-155 0 -252 10 -252 27 0 11 27 14 148 12 81 -1 152 -6 159 -11 23 -18 60 20
74 75 43 185 164 475 276 664 26 45 70 119 97 165 85 144 210 302 375 473 106
110 301 284 374 332 20 14 37 30 37 34 0 5 7 9 16 9 9 0 12 5 8 12 -4 6 -3 8
4 5 10 -7 93 55 100 74 2 5 13 9 25 9 24 1 67 32 67 49 0 6 7 8 15 5 10 -4 15
0 15 12 0 16 2 17 10 4 6 -10 10 -11 10 -2 0 6 7 12 15 12 8 0 15 5 15 12 0 6
3 8 6 5 6 -6 61 19 74 33 16 18 70 50 84 50 9 0 16 3 16 8 0 8 43 28 82 38 16
3 26 10 23 14 -3 4 22 16 55 26 33 11 60 22 60 27 0 4 6 7 14 7 8 0 17 6 19
13 4 9 6 9 6 -1 1 -10 9 -7 30 7 16 12 39 21 50 21 12 0 21 4 21 10 0 5 3 9 8
8 14 -5 111 26 106 34 -3 4 8 8 23 8 16 0 80 14 143 30 373 98 520 120 825
127 264 6 404 -6 630 -53 110 -23 420 -99 455 -111 8 -3 49 -18 90 -33 41 -16
98 -36 125 -46 28 -9 73 -27 100 -39 149 -66 200 -91 203 -97 2 -5 9 -8 16 -8
7 0 26 -11 42 -25 16 -14 33 -25 38 -25 27 0 288 -178 425 -289 192 -156 266
-223 474 -432 98 -99 184 -179 191 -179 7 0 21 -9 32 -21 17 -19 19 -45 26
-287 3 -147 7 -1041 7 -1987 l0 -1720 -107 113 -107 114 -50 -62 c-27 -34 -55
-68 -62 -75 -6 -7 -22 -28 -35 -47 -43 -63 -67 -90 -76 -84 -13 8 -36 -49 -28
-69 3 -8 1 -15 -5 -15 -5 0 -12 7 -15 15 -4 8 -10 15 -14 15 -5 0 -60 -48
-122 -106 -254 -238 -558 -443 -854 -574 -268 -118 -456 -179 -730 -235 -11
-3 -25 -15 -31 -28 -10 -22 -19 -24 -175 -38 -192 -17 -611 -17 -730 0 -46 6
-137 21 -203 32 -66 10 -123 19 -127 19 -5 0 -8 -30 -8 -67 0 -38 -5 -88 -11
-113 -6 -25 -12 -78 -14 -119 -3 -49 -9 -79 -20 -91 -19 -21 -18 -22 130 -44
470 -70 1061 -49 1435 51 74 20 171 42 215 50 51 9 112 30 170 58 50 24 108
51 130 60 143 61 392 194 545 291 200 126 613 429 636 465 9 15 -93 201 -121
221 -6 5 -6 8 0 8 6 0 3 4 -5 10 -8 5 -11 12 -8 16 4 3 20 -13 35 -37 15 -24
40 -58 56 -75 15 -17 33 -38 40 -46 19 -25 53 -31 70 -13 9 8 18 15 20 15 3 0
21 16 40 35 23 23 41 33 52 29 10 -4 26 3 43 19 15 14 41 33 58 43 17 11 69
49 115 86 46 37 141 112 212 168 l127 100 -1 1727 c-1 951 -4 1818 -7 1928
l-7 200 -46 95 c-44 91 -85 147 -257 350 -35 41 -92 109 -127 150 -134 160
-404 397 -645 565 -236 165 -619 366 -865 454 -49 18 -118 43 -153 56 -54 20
-282 80 -442 115 -163 37 -414 61 -675 64 -148 3 -283 2 -300 0z m-2898 -4821
c-4 -3 -28 -14 -54 -23 -27 -10 -57 -21 -68 -25 -15 -6 -17 -5 -10 3 6 6 37
20 70 31 70 23 70 23 62 14z m-152 -53 c-3 -5 -14 -10 -23 -10 -15 0 -15 2 -2
10 20 13 33 13 25 0z m-50 -20 c-3 -5 -16 -10 -28 -9 -20 1 -20 2 3 9 14 4 26
8 28 9 2 1 0 -3 -3 -9z m5730 -1090 c16 -17 16 -20 3 -15 -9 4 -19 13 -22 21
-7 19 -2 18 19 -6z m-4732 -120 c-6 -23 -22 -37 -19 -18 2 14 15 38 21 38 2 0
1 -9 -2 -20z m-51 -102 c-7 -7 -12 -8 -12 -2 0 6 3 14 7 17 3 4 9 5 12 2 2 -3
-1 -11 -7 -17z"/>
<path d="M4825 7696 c-330 -32 -613 -111 -900 -251 -257 -125 -495 -298 -707
-512 -203 -205 -263 -281 -398 -505 -110 -180 -185 -356 -254 -592 -100 -346
-124 -540 -107 -873 19 -377 98 -679 262 -1006 210 -421 482 -743 846 -1004
351 -252 805 -418 1284 -469 179 -19 468 -14 640 10 400 57 818 225 1138 457
253 184 507 453 629 668 110 191 142 308 162 583 38 521 -191 819 -589 769
-108 -14 -224 -68 -295 -138 -27 -26 -87 -106 -134 -178 -232 -353 -361 -484
-612 -618 -244 -130 -538 -183 -785 -143 -189 32 -363 102 -531 215 -172 115
-294 259 -391 456 -104 215 -133 331 -133 543 0 199 39 363 132 546 77 155
161 271 273 379 65 62 232 174 337 225 277 134 647 159 973 66 89 -25 91 -26
170 -10 125 25 344 87 830 236 149 46 332 102 408 125 l138 42 -59 74 c-123
153 -311 318 -503 441 -343 220 -626 339 -994 417 -238 51 -585 70 -830 47z"/>
<path d="M7240 6608 c-19 -5 -186 -58 -370 -118 -338 -109 -461 -148 -625
-195 -49 -14 -102 -31 -117 -37 l-27 -10 28 -42 c16 -22 59 -93 96 -156 177
-299 267 -402 407 -470 161 -78 331 -58 496 57 34 24 78 61 99 81 51 53 97
159 124 287 20 102 21 118 10 224 -13 130 -53 327 -73 363 -12 22 -17 24 -48
16z"/>
<path d="M5150 5770 c-245 -30 -489 -233 -553 -460 -50 -176 -15 -394 88 -556
76 -119 221 -223 354 -254 78 -18 279 -8 353 18 143 51 292 172 367 296 100
166 104 424 11 613 -95 195 -227 302 -419 337 -89 17 -102 17 -201 6z"/>
</g>
</svg>
